<?xml version="1.0" encoding="UTF-8" standalone="no"?>
<svg
   xmlns:dc="http://purl.org/dc/elements/1.1/"
   xmlns:cc="http://creativecommons.org/ns#"
   xmlns:rdf="http://www.w3.org/1999/02/22-rdf-syntax-ns#"
   xmlns:svg="http://www.w3.org/2000/svg"
   xmlns="http://www.w3.org/2000/svg"
   xmlns:sodipodi="http://sodipodi.sourceforge.net/DTD/sodipodi-0.dtd"
   xmlns:inkscape="http://www.inkscape.org/namespaces/inkscape"
   width="210mm"
   height="297mm"
   viewBox="0 0 210 297"
   version="1.1"
   id="svg2064"
   inkscape:version="1.0.2-2 (e86c870879, 2021-01-15)"
   sodipodi:docname="logo-cripto.svg">
  <defs
     id="defs2058" />
  <sodipodi:namedview
     id="base"
     pagecolor="#ffffff"
     bordercolor="#666666"
     borderopacity="1.0"
     inkscape:pageopacity="0.0"
     inkscape:pageshadow="2"
     inkscape:zoom="0.01"
     inkscape:cx="441.11269"
     inkscape:cy="9494.2925"
     inkscape:document-units="mm"
     inkscape:current-layer="layer1"
     inkscape:document-rotation="0"
     showgrid="false"
     showborder="false"
     inkscape:window-width="1280"
     inkscape:window-height="961"
     inkscape:window-x="-8"
     inkscape:window-y="-8"
     inkscape:window-maximized="1" />
  <metadata
     id="metadata2061">
    <rdf:RDF>
      <cc:Work
         rdf:about="">
        <dc:format>image/svg+xml</dc:format>
        <dc:type
           rdf:resource="http://purl.org/dc/dcmitype/StillImage" />
        <dc:title></dc:title>
      </cc:Work>
    </rdf:RDF>
  </metadata>
  <g
     inkscape:label="Capa 1"
     inkscape:groupmode="layer"
     id="layer1">
    <g
       id="g2677"
       transform="matrix(437.51973,0,0,437.51973,-60226.488,-25944.395)">
      <circle
         style="fill:#f4da18;fill-opacity:1;stroke:#4b4b48;stroke-width:0.769975;stroke-linecap:round;stroke-miterlimit:4;stroke-dasharray:none;stroke-opacity:1;paint-order:markers fill stroke"
         id="path1280-0"
         cx="140.74738"
         cy="57.849918"
         r="6.3476734"
         inkscape:export-xdpi="43"
         inkscape:export-ydpi="43" />
      <text
         xml:space="preserve"
         style="font-style:normal;font-variant:normal;font-weight:bold;font-stretch:normal;font-size:8.64697px;line-height:1.25;font-family:Comfortaa;-inkscape-font-specification:'Comfortaa Bold';fill:#000000;fill-opacity:0.6;stroke:none;stroke-width:0.628554;stroke-linecap:round;stroke-miterlimit:4;stroke-dasharray:none;stroke-opacity:0.578073;paint-order:markers fill stroke"
         x="131.3643"
         y="64.162132"
         id="text1284-0"
         transform="scale(1.0468955,0.95520518)"
         inkscape:export-xdpi="43"
         inkscape:export-ydpi="43"><tspan
           sodipodi:role="line"
           id="tspan1282-3"
           x="131.3643"
           y="64.162132"
           style="font-style:normal;font-variant:normal;font-weight:bold;font-stretch:normal;font-family:Comfortaa;-inkscape-font-specification:'Comfortaa Bold';fill:#000000;fill-opacity:0.6;stroke:none;stroke-width:0.628554;stroke-linecap:round;stroke-miterlimit:4;stroke-dasharray:none;stroke-opacity:0.578073;paint-order:markers fill stroke">B</tspan></text>
      <path
         style="fill:#000000;fill-opacity:0.6;stroke:#000000;stroke-width:0.422924;stroke-linecap:round;stroke-linejoin:miter;stroke-miterlimit:4;stroke-dasharray:none;stroke-opacity:0.6;paint-order:markers fill stroke"
         d="m 141.09847,61.389114 v 0.60549"
         id="path965-0-1"
         inkscape:export-xdpi="43"
         inkscape:export-ydpi="43" />
      <path
         style="fill:#f4da18;fill-opacity:1;stroke:#000000;stroke-width:0.463608;stroke-linecap:round;stroke-linejoin:miter;stroke-miterlimit:4;stroke-dasharray:none;stroke-opacity:0.6;paint-order:markers fill stroke"
         d="m 140.03208,61.389114 v 0.60549"
         id="path965-0-9-1"
         inkscape:export-xdpi="43"
         inkscape:export-ydpi="43" />
      <rect
         style="fill:#808080;fill-opacity:1;stroke:#4b4b48;stroke-width:0.60352;stroke-linecap:round;stroke-miterlimit:4;stroke-dasharray:none;stroke-opacity:1;paint-order:markers fill stroke"
         id="rect1346-0"
         width="5.0945544"
         height="1.6035048"
         x="134.44818"
         y="71.775726"
         inkscape:export-xdpi="43"
         inkscape:export-ydpi="43" />
      <path
         style="fill:#f3c5a8;fill-opacity:1;stroke:#4b4b48;stroke-width:0.485522;stroke-linecap:round;stroke-linejoin:miter;stroke-miterlimit:4;stroke-dasharray:none;stroke-opacity:1;paint-order:markers fill stroke"
         d="m 130.74902,61.984634 v 3.43563 c 0,0 -0.13342,1.2008 0.53369,1.9346 0.66711,0.73386 2.90193,3.26884 2.90193,3.26884 h 5.43694 v -1.60103 c 0,0 0.20014,-1.43425 -1.2675,-2.60175 l -1.73449,-1.66775 c 0,0 -1.2008,-1.33423 -2.03469,-0.50036 -0.83388,0.83388 0.3002,1.83454 0.3002,1.83454 l 1.10073,1.13414 c 0,0 0.73382,0.60037 0.23349,1.23411 -0.50033,0.63378 -1.53435,-0.33352 -1.53435,-0.33352 l -1.40093,-1.46766 c 0,0 -0.50034,-0.53372 -0.46698,-1.73447 0.0334,-1.2008 0,-2.8686 0,-2.8686 0,0 0.10841,-0.89223 -1.10073,-0.8756 -1.20914,0.0165 -0.96731,0.80888 -0.96731,0.80888 z"
         id="path1379-7"
         inkscape:export-xdpi="43"
         inkscape:export-ydpi="43" />
      <rect
         style="fill:#808080;fill-opacity:1;stroke:#4b4b48;stroke-width:0.60352;stroke-linecap:round;stroke-miterlimit:4;stroke-dasharray:none;stroke-opacity:1;paint-order:markers fill stroke"
         id="rect1346-5-8"
         width="5.0945544"
         height="1.6035048"
         x="-146.76389"
         y="71.751404"
         transform="scale(-1,1)"
         inkscape:export-xdpi="43"
         inkscape:export-ydpi="43" />
      <path
         style="fill:#f3c5a8;fill-opacity:1;stroke:#4b4b48;stroke-width:0.485522;stroke-linecap:round;stroke-linejoin:miter;stroke-miterlimit:4;stroke-dasharray:none;stroke-opacity:1;paint-order:markers fill stroke"
         d="m 150.46307,61.968944 v 3.43557 c 0,0 0.13342,1.2008 -0.53368,1.93466 -0.66711,0.73375 -2.90193,3.26878 -2.90193,3.26878 h -5.43695 v -1.60108 c 0,0 -0.20013,-1.43425 1.26751,-2.60165 l 1.73449,-1.6678 c 0,0 1.2008,-1.33423 2.03468,-0.50036 0.83389,0.83393 -0.30019,1.83459 -0.30019,1.83459 l -1.10074,1.13404 c 0,0 -0.73382,0.60042 -0.23349,1.23416 0.50034,0.63378 1.53436,-0.33357 1.53436,-0.33357 l 1.40093,-1.46761 c 0,0 0.50033,-0.53366 0.46697,-1.73452 -0.0334,-1.20075 0,-2.86855 0,-2.86855 0,0 -0.1084,-0.89222 1.10074,-0.8756 1.20913,0.0165 0.9673,0.80894 0.9673,0.80894 z"
         id="path1379-4-6"
         inkscape:export-xdpi="43"
         inkscape:export-ydpi="43" />
      <path
         style="fill:#000000;fill-opacity:0.6;stroke:#000000;stroke-width:0.422924;stroke-linecap:round;stroke-linejoin:miter;stroke-miterlimit:4;stroke-dasharray:none;stroke-opacity:0.6;paint-order:markers fill stroke"
         d="m 141.20935,54.132714 v 0.60549"
         id="path965-0-3-2"
         inkscape:export-xdpi="43"
         inkscape:export-ydpi="43" />
      <path
         style="fill:#f4da18;fill-opacity:1;stroke:#000000;stroke-width:0.463608;stroke-linecap:round;stroke-linejoin:miter;stroke-miterlimit:4;stroke-dasharray:none;stroke-opacity:0.6;paint-order:markers fill stroke"
         d="m 140.14296,54.132714 v 0.60549"
         id="path965-0-9-2-1"
         inkscape:export-xdpi="43"
         inkscape:export-ydpi="43" />
    </g>
  </g>
</svg>
